<svg xmlns="http://www.w3.org/2000/svg" viewBox="0 0 16 16" width="256" height="256" shape-rendering="crispEdges">
  <title>ollama-code logo — pixel llama</title>
  <rect x="4" y="0" width="2" height="1" fill="#FF87C3"/>
  <rect x="10" y="0" width="2" height="1" fill="#FF87C3"/>
  <rect x="4" y="1" width="1" height="1" fill="#FF87C3"/>
  <rect x="5" y="1" width="1" height="1" fill="#FFB6DC"/>
  <rect x="10" y="1" width="1" height="1" fill="#FFB6DC"/>
  <rect x="11" y="1" width="1" height="1" fill="#FF87C3"/>
  <rect x="4" y="2" width="1" height="1" fill="#FF87C3"/>
  <rect x="5" y="2" width="1" height="1" fill="#FFB6DC"/>
  <rect x="10" y="2" width="1" height="1" fill="#FFB6DC"/>
  <rect x="11" y="2" width="1" height="1" fill="#FF87C3"/>
  <rect x="4" y="3" width="2" height="1" fill="#FF87C3"/>
  <rect x="10" y="3" width="2" height="1" fill="#FF87C3"/>
  <rect x="3" y="4" width="10" height="1" fill="#FF87C3"/>
  <rect x="2" y="5" width="12" height="1" fill="#FF87C3"/>
  <rect x="2" y="6" width="1" height="1" fill="#FFB6DC"/>
  <rect x="3" y="6" width="10" height="1" fill="#FF87C3"/>
  <rect x="13" y="6" width="1" height="1" fill="#D9539E"/>
  <rect x="2" y="7" width="2" height="1" fill="#FF87C3"/>
  <rect x="4" y="7" width="1" height="1" fill="#FFFFFF"/>
  <rect x="5" y="7" width="1" height="1" fill="#2B1B2E"/>
  <rect x="6" y="7" width="4" height="1" fill="#FF87C3"/>
  <rect x="10" y="7" width="1" height="1" fill="#FFFFFF"/>
  <rect x="11" y="7" width="1" height="1" fill="#2B1B2E"/>
  <rect x="12" y="7" width="1" height="1" fill="#FF87C3"/>
  <rect x="13" y="7" width="1" height="1" fill="#D9539E"/>
  <rect x="2" y="8" width="2" height="1" fill="#FF87C3"/>
  <rect x="4" y="8" width="2" height="1" fill="#2B1B2E"/>
  <rect x="6" y="8" width="4" height="1" fill="#FF87C3"/>
  <rect x="10" y="8" width="2" height="1" fill="#2B1B2E"/>
  <rect x="12" y="8" width="1" height="1" fill="#FF87C3"/>
  <rect x="13" y="8" width="1" height="1" fill="#D9539E"/>
  <rect x="2" y="9" width="1" height="1" fill="#FFB6DC"/>
  <rect x="3" y="9" width="10" height="1" fill="#FF87C3"/>
  <rect x="13" y="9" width="1" height="1" fill="#D9539E"/>
  <rect x="2" y="10" width="3" height="1" fill="#FF87C3"/>
  <rect x="5" y="10" width="6" height="1" fill="#FFD447"/>
  <rect x="11" y="10" width="2" height="1" fill="#FF87C3"/>
  <rect x="13" y="10" width="1" height="1" fill="#D9539E"/>
  <rect x="2" y="11" width="3" height="1" fill="#FF87C3"/>
  <rect x="5" y="11" width="1" height="1" fill="#FFD447"/>
  <rect x="6" y="11" width="1" height="1" fill="#2B1B2E"/>
  <rect x="7" y="11" width="2" height="1" fill="#FFD447"/>
  <rect x="9" y="11" width="1" height="1" fill="#2B1B2E"/>
  <rect x="10" y="11" width="1" height="1" fill="#FFD447"/>
  <rect x="11" y="11" width="2" height="1" fill="#FF87C3"/>
  <rect x="13" y="11" width="1" height="1" fill="#D9539E"/>
  <rect x="2" y="12" width="3" height="1" fill="#FF87C3"/>
  <rect x="5" y="12" width="6" height="1" fill="#FFD447"/>
  <rect x="11" y="12" width="2" height="1" fill="#FF87C3"/>
  <rect x="13" y="12" width="1" height="1" fill="#D9539E"/>
  <rect x="2" y="13" width="4" height="1" fill="#FF87C3"/>
  <rect x="6" y="13" width="4" height="1" fill="#FFD447"/>
  <rect x="10" y="13" width="3" height="1" fill="#FF87C3"/>
  <rect x="13" y="13" width="1" height="1" fill="#D9539E"/>
  <rect x="2" y="14" width="1" height="1" fill="#D9539E"/>
  <rect x="3" y="14" width="10" height="1" fill="#FF87C3"/>
  <rect x="13" y="14" width="1" height="1" fill="#D9539E"/>
  <rect x="3" y="15" width="10" height="1" fill="#D9539E"/>
</svg>
